<svg width="92" height="92" viewBox="0 0 92 92" fill="none" xmlns="http://www.w3.org/2000/svg">
    <path
        d="M8.00757 46C8.00757 55.6633 11.8463 64.9309 18.6793 71.7639C25.5123 78.5969 34.7799 82.4356 44.4432 82.4356C54.1065 82.4356 63.3741 78.5969 70.2071 71.7639C77.0401 64.9309 80.8789 55.6633 80.8789 46C80.8789 36.3366 77.0401 27.0691 70.2071 20.2361C63.3741 13.4031 54.1065 9.56433 44.4432 9.56433C34.7799 9.56433 25.5123 13.4031 18.6793 20.2361C11.8463 27.0691 8.00757 36.3366 8.00757 46Z"
        fill="#FEF1F1" />
    <path
        d="M72.3029 70.8882H16.5354C15.7834 70.8882 15.0621 70.5895 14.5304 70.0577C13.9986 69.5259 13.6998 68.8047 13.6998 68.0526V29.2997H75.1385V68.0526C75.1385 68.8047 74.8398 69.5259 74.308 70.0577C73.7762 70.5895 73.055 70.8882 72.3029 70.8882Z"
        fill="#A8D0B8" />
    <path
        d="M72.3029 20.793H16.5354C15.7834 20.793 15.0621 21.0917 14.5304 21.6235C13.9986 22.1553 13.6998 22.8765 13.6998 23.6286V29.2998H75.1385V23.6286C75.1385 22.8765 74.8398 22.1553 74.308 21.6235C73.7762 21.0917 73.055 20.793 72.3029 20.793Z"
        fill="white" />
    <path
        d="M16.5353 25.0458C16.5353 25.422 16.6847 25.7827 16.9507 26.0487C17.2167 26.3147 17.5774 26.4641 17.9535 26.4641C18.3297 26.4641 18.6904 26.3147 18.9564 26.0487C19.2224 25.7827 19.3718 25.422 19.3718 25.0458C19.3718 24.6697 19.2224 24.3089 18.9564 24.043C18.6904 23.777 18.3297 23.6276 17.9535 23.6276C17.5774 23.6276 17.2167 23.777 16.9507 24.043C16.6847 24.3089 16.5353 24.6697 16.5353 25.0458Z"
        fill="#A8D0B8" stroke="#405858" stroke-width="0.92" stroke-linecap="round" stroke-linejoin="round" />
    <path
        d="M21.2611 25.0458C21.2611 25.422 21.4105 25.7827 21.6765 26.0487C21.9425 26.3147 22.3032 26.4641 22.6794 26.4641C23.0555 26.4641 23.4162 26.3147 23.6822 26.0487C23.9482 25.7827 24.0976 25.422 24.0976 25.0458C24.0976 24.6697 23.9482 24.3089 23.6822 24.043C23.4162 23.777 23.0555 23.6276 22.6794 23.6276C22.3032 23.6276 21.9425 23.777 21.6765 24.043C21.4105 24.3089 21.2611 24.6697 21.2611 25.0458Z"
        fill="#A8D0B8" stroke="#405858" stroke-width="0.92" stroke-linecap="round" stroke-linejoin="round" />
    <path
        d="M25.9878 25.0458C25.9878 25.422 26.1372 25.7827 26.4032 26.0487C26.6692 26.3147 27.0299 26.4641 27.406 26.4641C27.7822 26.4641 28.1429 26.3147 28.4089 26.0487C28.6749 25.7827 28.8243 25.422 28.8243 25.0458C28.8243 24.6697 28.6749 24.3089 28.4089 24.043C28.1429 23.777 27.7822 23.6276 27.406 23.6276C27.0299 23.6276 26.6692 23.777 26.4032 24.043C26.1372 24.3089 25.9878 24.6697 25.9878 25.0458Z"
        fill="#A8D0B8" stroke="#405858" stroke-width="0.92" stroke-linecap="round" stroke-linejoin="round" />
    <path
        d="M72.3029 70.8882H16.5354C15.7834 70.8882 15.0621 70.5895 14.5304 70.0577C13.9986 69.5259 13.6998 68.8047 13.6998 68.0526V29.2997H75.1385V68.0526C75.1385 68.8047 74.8398 69.5259 74.308 70.0577C73.7762 70.5895 73.055 70.8882 72.3029 70.8882Z"
        stroke="#405858" stroke-width="0.92" stroke-linecap="round" stroke-linejoin="round" />
    <path
        d="M72.3029 20.793H16.5354C15.7834 20.793 15.0621 21.0917 14.5304 21.6235C13.9986 22.1553 13.6998 22.8765 13.6998 23.6286V29.2998H75.1385V23.6286C75.1385 22.8765 74.8398 22.1553 74.308 21.6235C73.7762 21.0917 73.055 20.793 72.3029 20.793Z"
        stroke="#405858" stroke-width="0.92" stroke-linecap="round" stroke-linejoin="round" />
    <path d="M42.8912 54.3419H70.5413V66.0332H42.8912V54.3419Z" fill="white" stroke="#405858" stroke-width="0.92"
        stroke-linecap="round" stroke-linejoin="round" />
    <path d="M48.1808 62.2467H65.2518" stroke="#405858" stroke-width="0.92" stroke-linecap="round"
        stroke-linejoin="round" />
    <path d="M51.9072 58.1294H65.2518" stroke="#405858" stroke-width="0.92" stroke-linecap="round"
        stroke-linejoin="round" />
    <path d="M42.8912 34.4163H70.5413V52.0821H42.8912V34.4163Z" fill="white" stroke="#405858" stroke-width="0.92"
        stroke-linecap="round" stroke-linejoin="round" />
    <path d="M17.9537 34.4163H39.1647V66.0333H17.9537V34.4163Z" fill="white" stroke="#405858" stroke-width="0.92"
        stroke-linecap="round" stroke-linejoin="round" />
    <path d="M17.9537 34.4163H39.1575V50.7403H17.9537V34.4163Z" fill="white" stroke="#405858" stroke-width="0.92"
        stroke-linecap="round" stroke-linejoin="round" />
    <path
        d="M25.4139 50.7366L28.8544 45.9198C29.0431 45.6554 29.2923 45.44 29.5811 45.2913C29.8699 45.1426 30.1901 45.0651 30.5149 45.0651C30.8398 45.0651 31.1599 45.1426 31.4487 45.2913C31.7376 45.44 31.9867 45.6554 32.1755 45.9198L35.6159 50.7366H25.4139Z"
        fill="#A8D0B8" stroke="#405858" stroke-width="0.92" stroke-linecap="round" stroke-linejoin="round" />
    <path
        d="M18.564 50.7367L23.0528 44.7512C23.2429 44.4978 23.4893 44.2921 23.7727 44.1505C24.056 44.0088 24.3684 43.9351 24.6852 43.9351C25.0019 43.9351 25.3143 44.0088 25.5976 44.1505C25.881 44.2921 26.1274 44.4978 26.3175 44.7512L30.8073 50.7367H18.564Z"
        fill="#A8D0B8" stroke="#405858" stroke-width="0.92" stroke-linecap="round" stroke-linejoin="round" />
    <path
        d="M31.0924 39.3632C31.0924 39.9096 31.3095 40.4337 31.6959 40.8201C32.0823 41.2065 32.6064 41.4236 33.1528 41.4236C33.6993 41.4236 34.2234 41.2065 34.6098 40.8201C34.9962 40.4337 35.2133 39.9096 35.2133 39.3632C35.2133 38.8167 34.9962 38.2926 34.6098 37.9062C34.2234 37.5198 33.6993 37.3027 33.1528 37.3027C32.6064 37.3027 32.0823 37.5198 31.6959 37.9062C31.3095 38.2926 31.0924 38.8167 31.0924 39.3632Z"
        fill="#A8D0B8" stroke="#405858" stroke-width="0.92" stroke-linecap="round" stroke-linejoin="round" />
    <path d="M21.8868 54.0114H35.2314" stroke="#405858" stroke-width="0.92" stroke-linecap="round"
        stroke-linejoin="round" />
    <path d="M21.8868 58.1294H35.2314" stroke="#405858" stroke-width="0.92" stroke-linecap="round"
        stroke-linejoin="round" />
    <path d="M21.8868 62.2467H35.2314" stroke="#405858" stroke-width="0.92" stroke-linecap="round"
        stroke-linejoin="round" />
    <path
        d="M56.3278 46.2732C56.8761 45.4546 57.1918 44.5024 57.2411 43.5183C57.2903 42.5342 57.0714 41.5552 56.6075 40.6859C56.1437 39.8166 55.4524 39.0896 54.6076 38.5826C53.7627 38.0756 52.796 37.8077 51.8107 37.8074V43.2454L56.3278 46.2732Z"
        fill="#A8D0B8" stroke="#405858" stroke-width="0.92" stroke-linecap="round" stroke-linejoin="round" />
    <path
        d="M51.8106 37.811C50.8218 37.8112 49.8518 38.081 49.0048 38.5913C48.1579 39.1017 47.4662 39.8333 47.004 40.7075C46.5419 41.5816 46.3268 42.5653 46.382 43.5525C46.4372 44.5398 46.7605 45.4933 47.3172 46.3106L51.8106 43.2491V37.811Z"
        fill="#A8D0B8" stroke="#405858" stroke-width="0.92" stroke-linecap="round" stroke-linejoin="round" />
    <path
        d="M51.8105 43.2491L47.3162 46.3107C47.8171 47.0456 48.4906 47.6465 49.2777 48.0607C50.0648 48.4749 50.9414 48.6897 51.8308 48.6864C52.7202 48.6831 53.5953 48.4617 54.3792 48.0416C55.1632 47.6215 55.8322 47.0156 56.3276 46.2769L51.8105 43.2491Z"
        fill="#A8D0B8" stroke="#405858" stroke-width="0.92" stroke-linecap="round" stroke-linejoin="round" />
    <path d="M62.4398 43.2491H66.875" stroke="#405858" stroke-width="0.92" stroke-linecap="round"
        stroke-linejoin="round" />
    <path d="M62.4398 39.151H66.875" stroke="#405858" stroke-width="0.92" stroke-linecap="round"
        stroke-linejoin="round" />
    <path d="M62.4398 47.3472H66.875" stroke="#405858" stroke-width="0.92" stroke-linecap="round"
        stroke-linejoin="round" />
    <path
        d="M54.8438 63.623C54.8438 67.4883 56.3793 71.1953 59.1125 73.9285C61.8457 76.6617 65.5527 78.1972 69.418 78.1972C73.2833 78.1972 76.9904 76.6617 79.7236 73.9285C82.4568 71.1953 83.9923 67.4883 83.9923 63.623C83.9923 59.7576 82.4568 56.0506 79.7236 53.3174C76.9904 50.5842 73.2833 49.0487 69.418 49.0487C65.5527 49.0487 61.8457 50.5842 59.1125 53.3174C56.3793 56.0506 54.8438 59.7576 54.8438 63.623Z"
        fill="white" />
    <path
        d="M54.8438 63.623C54.8438 67.4883 56.3793 71.1953 59.1125 73.9285C61.8457 76.6617 65.5527 78.1972 69.418 78.1972C73.2833 78.1972 76.9904 76.6617 79.7236 73.9285C82.4568 71.1953 83.9923 67.4883 83.9923 63.623C83.9923 59.7576 82.4568 56.0506 79.7236 53.3174C76.9904 50.5842 73.2833 49.0487 69.418 49.0487C65.5527 49.0487 61.8457 50.5842 59.1125 53.3174C56.3793 56.0506 54.8438 59.7576 54.8438 63.623Z"
        stroke="#405858" stroke-width="0.92" stroke-linecap="round" stroke-linejoin="round" />
    <path
        d="M67.3523 70.5594C66.9764 70.5599 66.6042 70.4862 66.2569 70.3426C65.9095 70.1989 65.594 69.9882 65.3283 69.7223L61.5126 65.9057C60.9887 65.3663 60.6981 64.6424 60.7037 63.8905C60.7093 63.1386 61.0105 62.4191 61.5423 61.8875C62.0742 61.3559 62.7938 61.055 63.5457 61.0498C64.2976 61.0445 65.0214 61.3354 65.5606 61.8595L67.3523 63.6512L73.2785 57.5246C73.5438 57.257 73.8593 57.0443 74.2069 56.899C74.5546 56.7536 74.9275 56.6783 75.3043 56.6775C75.6811 56.6767 76.0544 56.7502 76.4026 56.894C76.7509 57.0379 77.0674 57.249 77.3338 57.5155C77.6003 57.7819 77.8115 58.0984 77.9553 58.4467C78.0991 58.795 78.1727 59.1682 78.1718 59.545C78.171 59.9218 78.0957 60.2948 77.9503 60.6424C77.805 60.99 77.5924 61.3055 77.3247 61.5708L69.3754 69.7223C69.1099 69.9882 68.7945 70.199 68.4473 70.3427C68.1001 70.4863 67.728 70.56 67.3523 70.5594Z"
        fill="#A8D0B8" stroke="#405858" stroke-width="0.92" stroke-linecap="round" stroke-linejoin="round" />
</svg>