<svg width="96" height="97" viewBox="0 0 96 97" fill="none" xmlns="http://www.w3.org/2000/svg">
    <rect x="2" y="2.5094" width="92" height="92" rx="22" fill="#083434" />
    <rect x="2" y="2.5094" width="92" height="92" rx="22" stroke="#083434" stroke-width="4" />
    <path
        d="M61.6085 61.1867L68.25 69.8079H59.6368L56.2641 65.4583C53.4796 66.9863 50.375 67.7503 46.9505 67.7503C41.2256 67.7503 36.4693 65.7708 32.6816 61.8118C28.8939 57.8355 27 53.1038 27 47.6169C27 43.953 27.8821 40.5931 29.6462 37.537C31.4104 34.4637 33.8318 32.024 36.9103 30.2182C40.0062 28.4123 43.327 27.5094 46.8726 27.5094C52.2862 27.5094 56.93 29.4715 60.8042 33.3958C64.6957 37.32 66.6415 42.1038 66.6415 47.7471C66.6415 52.9389 64.9638 57.4188 61.6085 61.1867ZM57.0683 55.3003C58.6076 53.0083 59.3773 50.4732 59.3773 47.695C59.3773 44.0659 58.158 40.9838 55.7193 38.4487C53.2806 35.9135 50.3317 34.646 46.8726 34.646C43.3097 34.646 40.3263 35.8788 37.9222 38.3445C35.5181 40.8101 34.316 43.9444 34.316 47.7471C34.316 51.9839 35.8294 55.3351 38.8561 57.8008C41.2256 59.7282 43.915 60.6919 46.9245 60.6919C48.654 60.6919 50.2799 60.3532 51.8019 59.6761L44.9787 50.8465H53.6438L57.0683 55.3003Z"
        fill="white" />
</svg>